<svg xmlns="http://www.w3.org/2000/svg" xmlns:xlink="http://www.w3.org/1999/xlink" id="Layer_1" x="0" y="0" version="1.1" viewBox="0 0 120 48" xml:space="preserve" style="enable-background:new 0 0 120 48"><style type="text/css">.st0{fill:#c03}</style><g><path d="M19.8,15.9c0-2,0-3.8,0-5.5c0-1.7,0-3.5,0-5.5c1.6,0.1,5.5,1.9,5.5,2.1c0,3,0.1,12.3,0,20.2 c-0.1,3.6-5.1,9.9-11.4,9.8C8.2,36.8,3.4,32.3,3.2,26.8c-0.3-8.6,7-14.1,15.1-11.3C18.6,15.6,19,15.7,19.8,15.9z M14.2,31.4 c3,0,5.5-2.5,5.5-5.5c0-2.9-2.6-5.5-5.5-5.6c-2.9,0-5.5,2.6-5.5,5.5C8.7,28.9,11.2,31.4,14.2,31.4z" class="st0"/><path d="M43.8,44.4c-5.6-1.6-5.5-1-5.5-6.2c0-4,0-9.9,0.1-14c0.1-5.6,4.3-8.9,9.8-9.4c5.5-0.6,10.7,3.1,11.9,8.5 c1,4.3-0.2,8-3.5,10.9c-3.1,2.8-6.8,3.3-10.7,2.2c-0.6-0.2-1.2-0.3-2.1-0.6C43.8,38.8,43.8,41.5,43.8,44.4z M49.2,31.4 c3,0,5.6-2.4,5.7-5.4c0.1-2.9-2.5-5.6-5.4-5.7c-2.9-0.1-5.6,2.5-5.6,5.4C43.8,28.8,46.2,31.3,49.2,31.4z" class="st0"/><path d="M77,14.8c1.6,0,3.1,0,4.4,0c0.2,0,0.5-0.1,0.5,0c1.2,1.9,3,0.6,4.4,0.6c5.5-0.2,10.1,3.8,10.2,9.3 c0.1,3.5,0,6.9,0,10.4c0,1.1-0.4,1.5-1.5,1.6c-4,0.2-4,0.3-4-3.8c0-2.4,0-4.8,0-7.2c0-2.9-1.7-4.7-4.2-4.7c-2.6,0-4.2,1.8-4.2,4.7 c0,3.1,0,6.3,0,9.4c0,1.1-0.4,1.6-1.5,1.5C76.5,36.5,77,16,77,14.8z" class="st0"/><path d="M118.8,19.4c-1.5,1-2.9,2-4.4,3c-1.8-1.5-3.7-2.6-6.1-1.8c-2.1,0.7-3.4,2.1-3.7,4.3c-0.4,2.3,0.4,4.3,2.3,5.6 c1.9,1.3,4.1,1.5,5.8,0c1.7-1.4,2.7-0.8,4,0.2c0.7,0.5,1.4,1,2.1,1.5c-2.5,3.9-7.4,5.6-11.9,4.3c-4.8-1.4-8.1-5.6-8.2-10.3 c-0.1-5,3.1-9.4,7.7-10.9C111,13.8,115.9,15.4,118.8,19.4z" class="st0"/><path d="M68.2,8.2c0.2,0,0.3,0.1,0.3,0.2c0,1.9,0,3.6,0,5.2c0,1.1,0,1.3,1.8,1.4c0.3,0,1.2,0,1.3,0 c4.6,0.1,4.1-0.2,3.4,4.9c0,0.2-0.4,0.3-0.4,0.3c-1.4,0-2.4,0-4.3,0c-1.6,0-1.9,0.5-1.8,1.7c0.1,2.4-0.3,4.9,1.5,6.8 c1.2,1.3,2.9,2.2,4.8,3.6c0.1,0,0.1,0.1,0.1,0.2v4.2c0,0.1-0.1,0.2-0.2,0.2c-6.1-0.1-11.3-5-11.5-11c-0.1-4.9,0-9.8-0.1-14.7 c0-1.2,0.4-1.7,1.5-2C65.8,8.9,66.8,8.6,68.2,8.2z" class="st0"/><path d="M34.4,36.8c-1.5,0-2.9,0.1-4.3-0.1c-0.4-0.1-1.3-0.8-1.3-1.3c0-14.1,0-9.9,0-18c0-0.5,0.6-1.3,1-1.5 c1.4-0.6,2.9-1,4.6-1.6C34.4,21.9,34.4,29.2,34.4,36.8z" class="st0"/><polygon points="77 36.8 81.6 36.7 77 14.8" class="st0"/></g></svg>