<?xml version="1.0" encoding="utf-8"?>
<!-- Generator: Adobe Illustrator 24.1.1, SVG Export Plug-In . SVG Version: 6.00 Build 0)  -->
<svg version="1.1" id="Layer_1" xmlns="http://www.w3.org/2000/svg" xmlns:xlink="http://www.w3.org/1999/xlink" x="0px" y="0px"
	 viewBox="0 0 1172 815" style="enable-background:new 0 0 1172 815;" xml:space="preserve">
<style type="text/css">
	.st0{fill:#56398E;fill-opacity:0.9;}
	.st1{opacity:0.38;fill:#2C1F4F;enable-background:new    ;}
	.st2{display:none;}
	.st3{display:inline;fill:#ABBEFF;}
	.st4{display:inline;fill:#2C1F4F;}
	.st5{display:inline;}
	.st6{fill:#FFFFFF;}
	.st7{fill:#ABBEFF;}
	.st8{fill:#2C1F4F;}
	.st9{fill:url(#SVGID_1_);}
	.st10{fill:#BA3518;}
	.st11{fill:#C85D46;}
	.st12{fill:#361F4F;}
	.st13{fill:#000034;}
	.st14{fill:#89A5FF;}
	.st15{fill:#FF5F3B;}
	.st16{opacity:0.5;}
	.st17{fill:#FF896E;}
	.st18{fill:#000053;}
	.st19{fill:#FF7355;}
	.st20{fill:#16004F;}
	.st21{fill:#5046AF;}
	.st22{fill:#55C7A6;}
	.st23{fill:#41378C;}
	.st24{fill:none;stroke:#41378C;stroke-width:2.766;stroke-miterlimit:10;}
	.st25{fill:none;stroke:#6E64C3;stroke-width:1.0605;stroke-miterlimit:10;}
	.st26{fill:none;stroke:#FFFFFF;stroke-width:0.9337;stroke-miterlimit:10;}
	.st27{fill:none;stroke:#F2B47C;stroke-width:15.4526;stroke-linecap:round;stroke-miterlimit:10;}
	.st28{fill:none;stroke:#FFC305;stroke-width:15.4526;stroke-miterlimit:10;}
	.st29{fill:none;stroke:#F2B47C;stroke-width:5.4084;stroke-linecap:round;stroke-miterlimit:10;}
	.st30{fill:#FFC305;}
	.st31{fill:#FFDC64;}
	.st32{fill:#DD9F6B;}
	.st33{fill:#F2B47C;}
	.st34{fill:#5A325A;}
	.st35{fill:#823264;}
	.st36{fill:none;stroke:#AA3C6E;stroke-width:12.3956;stroke-miterlimit:10;}
	.st37{fill:none;stroke:#0073AA;stroke-width:22.135;stroke-linecap:round;stroke-miterlimit:10;}
	.st38{fill:#6C9BAA;}
	.st39{fill:none;stroke:#FFFFFF;stroke-width:1.7919;stroke-linecap:round;stroke-miterlimit:10;}
	.st40{fill:none;}
	.st41{font-family:'ArialMT';}
	.st42{font-size:12px;}
</style>
<g id="BACKGROUND">
	<rect x="-1190" y="16" class="st0" width="1170" height="780"/>
</g>
<g id="OBJECTS">
	<g>
		<path class="st1" d="M-165.9,106.2C-284.8-31.1-570.9,43.1-528.8,243.9c10.1,48.4,39.8,93,40.1,143.4
			c0.3,52.6-29.7,90.1-64.2,127.1c-58.8,63.3-90,140.6-41,208.4c93.2,128.8,357,22.9,452-93.1C-20.7,481.6-43.6,247.3-165.9,106.2z"
			/>
	</g>
	<g>
		<g class="st2">
			<rect x="-1134.9" y="242.4" class="st3" width="75.3" height="62.8"/>
			<rect x="-1059.7" y="242.4" class="st4" width="240" height="62.8"/>
			<g class="st5">
				<text transform="matrix(1 0 0 1 -1047.7578 266.3076)" class="st6 st41" style="font-size:20.4573px;">Reduce your</text>
				<text transform="matrix(1 0 0 1 -1047.7578 292.2976)" class="st6 st41" style="font-size:20.4573px;">Stress Level</text>
			</g>
			<g class="st5">
				<path class="st6" d="M-1097.4,291.8c-0.3,0-0.6-0.1-0.8-0.4l-13-16.7c-0.2-0.3-0.3-0.7-0.1-1s0.5-0.5,0.9-0.5h7.3v-15.7
					c0-0.5,0.4-1,1-1c0.5,0,1,0.4,1,1v16.7c0,0.5-0.4,1-1,1h-6.3l11,14.1l11-14.1h-7.3c-0.5,0-1-0.4-1-1v-16.7c0-0.5,0.4-1,1-1
					c0.5,0,1,0.4,1,1v15.7h8.3c0.4,0,0.7,0.2,0.9,0.5c0.2,0.3,0.1,0.7-0.1,1l-13,16.7C-1096.8,291.7-1097.1,291.8-1097.4,291.8z"/>
			</g>
		</g>
		<g>
			<rect x="-1134.9" y="663.8" class="st7" width="75.3" height="62.8"/>
			<rect x="-1059.7" y="663.8" class="st8" width="240" height="62.8"/>
			<g>
				<text transform="matrix(1 0 0 1 -1047.7578 687.6592)" class="st6 st41" style="font-size:20.4573px;">Take a Deep</text>
				<text transform="matrix(1 0 0 1 -1047.7578 713.6492)" class="st6 st41" style="font-size:20.4573px;">Breath</text>
			</g>
			<g>
				<g>
					<path class="st6" d="M-1097.4,691.5c-0.5,0-1-0.4-1-1v-11.9c0-0.5,0.4-1,1-1c0.5,0,1,0.4,1,1v11.9
						C-1096.4,691.1-1096.9,691.5-1097.4,691.5z"/>
				</g>
				<g>
					<g>
						<path class="st6" d="M-1114.2,712.8c-1.2,0-2.5-0.2-3.8-0.5c-1.4-0.3-3.1-1.7-3.4-6.4c-0.2-3,0.3-6.8,1.3-10.8
							c1-4.2,2.5-7.9,4.1-10.7c2.5-4.3,4.8-4.8,6.2-4.4c3.5,0.8,6.3,4,7.8,8.9c1.4,4.3,1.6,9.3,0.6,13.3l0,0
							C-1103,708.9-1108,712.8-1114.2,712.8z M-1110.6,682c-1.1,0-2.4,1.3-3.8,3.5c-1.5,2.5-2.9,6.2-3.8,10.1
							c-0.9,3.8-1.4,7.4-1.2,10.2c0.2,2.7,0.8,4.3,1.9,4.6c6.9,1.7,12.6-1.8,14.3-8.6l0,0c0.9-3.7,0.7-8.4-0.6-12.3
							c-0.8-2.4-2.7-6.7-6.5-7.6C-1110.4,682-1110.5,682-1110.6,682z M-1102.3,702.1L-1102.3,702.1L-1102.3,702.1z"/>
					</g>
					<g>
						<path class="st6" d="M-1080.2,712.8c-6.2,0-11.2-3.9-12.8-10.5l0,0c-1-4.1-0.8-9,0.6-13.3c1.6-4.9,4.4-8,7.8-8.9
							c1.5-0.3,3.7,0.1,6.2,4.4c1.6,2.7,3,6.5,4.1,10.7c1,4,1.4,7.8,1.3,10.8c-0.3,4.7-2,6-3.4,6.4
							C-1077.8,712.7-1079,712.8-1080.2,712.8z M-1083.8,682c-0.1,0-0.2,0-0.3,0c-3.8,0.9-5.7,5.2-6.5,7.6
							c-1.3,3.9-1.5,8.6-0.6,12.3l0,0c1.7,6.8,7.4,10.2,14.3,8.6c1.1-0.3,1.8-1.9,1.9-4.6c0.2-2.8-0.3-6.4-1.2-10.2
							C-1078.1,687.9-1081.4,682-1083.8,682z"/>
					</g>
					<g>
						<path class="st6" d="M-1093.2,696.2c-0.3,0-0.5-0.1-0.7-0.3l-3.6-3.6l-3.6,3.6c-0.4,0.4-1,0.4-1.4,0s-0.4-1,0-1.4l4.3-4.3
							c0.4-0.4,1-0.4,1.4,0l4.3,4.3c0.4,0.4,0.4,1,0,1.4C-1092.7,696.1-1092.9,696.2-1093.2,696.2z"/>
					</g>
				</g>
			</g>
		</g>
		<g>
			<rect x="-1134.9" y="523.3" class="st7" width="75.3" height="62.8"/>
			<rect x="-1059.7" y="523.3" class="st8" width="240" height="62.8"/>
			<g>
				<text transform="matrix(1 0 0 1 -1047.7578 547.209)" class="st6 st41" style="font-size:20.4573px;">Practice Physical</text>
				<text transform="matrix(1 0 0 1 -1047.7578 573.199)" class="st6 st41" style="font-size:20.4573px;">Exercises</text>
			</g>
			<g>
				<g>
					<path class="st6" d="M-1112.8,566h-6c-0.5,0-1-0.4-1-1v-20.9c0-0.5,0.4-1,1-1h6c0.5,0,1,0.4,1,1s-0.4,1-1,1h-5V564h5
						c0.5,0,1,0.4,1,1C-1111.8,565.5-1112.2,566-1112.8,566z"/>
				</g>
				<g>
					<path class="st6" d="M-1106.8,570.7h-6c-0.5,0-1-0.4-1-1v-12.2c0-0.5,0.4-1,1-1c0.5,0,1,0.4,1,1v11.2h4v-28.4h-4v8.6
						c0,0.5-0.4,1-1,1c-0.5,0-1-0.4-1-1v-9.6c0-0.5,0.4-1,1-1h6c0.5,0,1,0.4,1,1v30.4C-1105.8,570.3-1106.3,570.7-1106.8,570.7z"/>
				</g>
				<g>
					<path class="st6" d="M-1087.1,558.5h-19.7c-0.5,0-1-0.4-1-1v-6c0-0.5,0.4-1,1-1h19.7c0.5,0,1,0.4,1,1v6
						C-1086.2,558.1-1086.6,558.5-1087.1,558.5z M-1105.8,556.6h17.7v-4h-17.7V556.6z"/>
				</g>
				<g>
					<path class="st6" d="M-1075.2,566h-6c-0.5,0-1-0.4-1-1c0-0.5,0.4-1,1-1h5v-18.9h-5c-0.5,0-1-0.4-1-1s0.4-1,1-1h6
						c0.5,0,1,0.4,1,1V565C-1074.2,565.5-1074.7,566-1075.2,566z"/>
				</g>
				<g>
					<path class="st6" d="M-1081.2,570.7h-6c-0.5,0-1-0.4-1-1v-30.4c0-0.5,0.4-1,1-1h6c0.5,0,1,0.4,1,1v18.2c0,0.5-0.4,1-1,1
						c-0.5,0-1-0.4-1-1v-17.2h-4v28.4h4V561c0-0.5,0.4-1,1-1c0.5,0,1,0.4,1,1v8.7C-1080.2,570.3-1080.6,570.7-1081.2,570.7z"/>
				</g>
			</g>
		</g>
		<g>
			<rect x="-1134.9" y="382.9" class="st7" width="75.3" height="62.8"/>
			<rect x="-1059.7" y="382.9" class="st8" width="240" height="62.8"/>
			<g>
				<text transform="matrix(1 0 0 1 -1047.7637 406.6367)" class="st6 st41" style="font-size:20.4573px;">Focus on the</text>
				<text transform="matrix(1 0 0 1 -1047.7637 432.6267)" class="st6 st41" style="font-size:20.4573px;">Present Moment</text>
			</g>
			<g>
				<g>
					<path class="st6" d="M-1097,433.2c-10.5,0-19-8.5-19-19s8.5-19,19-19s19,8.5,19,19C-1077.9,424.7-1086.5,433.2-1097,433.2z
						 M-1097,397.1c-9.4,0-17.1,7.7-17.1,17.1s7.7,17.1,17.1,17.1c9.4,0,17.1-7.7,17.1-17.1S-1087.6,397.1-1097,397.1z"/>
				</g>
				<g>
					<path class="st6" d="M-1097,426.7c-6.9,0-12.5-5.6-12.5-12.5s5.6-12.5,12.5-12.5c6.9,0,12.5,5.6,12.5,12.5
						S-1090.1,426.7-1097,426.7z M-1097,403.6c-5.8,0-10.6,4.8-10.6,10.6s4.8,10.6,10.6,10.6c5.8,0,10.6-4.8,10.6-10.6
						C-1086.4,408.4-1091.1,403.6-1097,403.6z"/>
				</g>
				<g>
					<path class="st6" d="M-1097,419c-2.7,0-4.8-2.2-4.8-4.8c0-2.7,2.2-4.8,4.8-4.8c2.7,0,4.8,2.2,4.8,4.8S-1094.3,419-1097,419z
						 M-1097,411.3c-1.6,0-2.9,1.3-2.9,2.9s1.3,2.9,2.9,2.9c1.6,0,2.9-1.3,2.9-2.9C-1094.1,412.6-1095.4,411.3-1097,411.3z"/>
				</g>
			</g>
		</g>
		<g>
			<rect x="-775" y="242.4" class="st7" width="75.3" height="62.8"/>
			<rect x="-699.8" y="242.4" class="st8" width="240" height="62.8"/>
			<g>
				<g>
					<path class="st6" d="M-738.2,291.8c-0.2,0-0.4-0.1-0.6-0.2c-0.8-0.6-19.1-13.9-19.1-27.2c0-5.9,4.8-10.7,10.6-10.7
						c3.7,0,7.1,2,9,5c1.9-3.1,5.3-5,9-5c5.9,0,10.6,4.8,10.6,10.7c0,13.2-18.3,26.6-19.1,27.2C-737.8,291.7-738,291.8-738.2,291.8z
						 M-747.2,255.8c-4.8,0-8.7,3.9-8.7,8.7c0,11,14.6,22.8,17.7,25.2c3.1-2.4,17.7-14.2,17.7-25.2c0-4.8-3.9-8.7-8.7-8.7
						c-3.6,0-6.8,2.3-8.1,5.6c-0.3,0.8-1.5,0.8-1.8,0C-740.3,258-743.6,255.8-747.2,255.8z"/>
				</g>
			</g>
			<g>
				<text transform="matrix(1 0 0 1 -683.2637 266.3389)" class="st6 st41" style="font-size:20.4573px;">Don’t be Afraid</text>
				<text transform="matrix(1 0 0 1 -683.2637 292.3289)" class="st6 st41" style="font-size:20.4573px;">to ask for Help</text>
			</g>
		</g>
		<g>
			<rect x="-775" y="382.9" class="st7" width="75.3" height="62.8"/>
			<rect x="-699.8" y="382.9" class="st8" width="240" height="62.8"/>
			<g>
				<text transform="matrix(1 0 0 1 -682.918 406.6367)" class="st6 st41" style="font-size:20.4573px;">Practice some</text>
				<text transform="matrix(1 0 0 1 -682.918 432.6267)" class="st6 st41" style="font-size:20.4573px;">Mindfulness</text>
			</g>
			<g>
				<g>
					<g>
						<path class="st6" d="M-745.1,435.7c-3.8,0-7.2-2.5-8.2-6.2c-3.6-0.2-6.5-3.2-6.5-6.9c0-2,0.8-3.8,2.2-5
							c-1.4-1.3-2.2-3.1-2.2-5c0-2.2,1.1-4.3,2.9-5.6c-0.4-0.9-0.6-1.9-0.6-2.8c0-4,3.5-7.3,7.5-6.8c0.8-3,3.5-5.1,6.6-5.1
							c3.8,0,6.9,3.1,6.9,6.9c0,0.5-0.4,1-1,1c-0.5,0-1-0.4-1-1c0-2.7-2.2-4.9-4.9-4.9c-2.5,0-4.6,1.9-4.9,4.4
							c0,0.3-0.2,0.5-0.4,0.7s-0.5,0.2-0.8,0.1c-3.3-0.8-6.1,1.6-6.1,4.8c0,0.9,0.3,1.9,0.8,2.6c0.2,0.2,0.2,0.5,0.1,0.8
							s-0.3,0.5-0.5,0.6c-1.6,0.9-2.7,2.5-2.7,4.4c0,1.7,0.9,3.3,2.4,4.2c0.3,0.2,0.5,0.5,0.5,0.8c0,0.3-0.2,0.7-0.5,0.8
							c-1.5,0.9-2.4,2.5-2.4,4.2c0,2.7,2.2,4.9,4.9,4.9c0.1,0,0.2,0,0.3,0c0.5,0,1,0.3,1.1,0.8c0.6,3.1,3.3,5.4,6.5,5.4
							c3.6,0,6.6-3,6.6-6.6c0-0.5,0.4-1,1-1c0.5,0,1,0.4,1,1C-736.5,431.9-740.4,435.7-745.1,435.7z"/>
					</g>
					<g>
						<path class="st6" d="M-751.5,422.3c-0.1,0-0.1,0-0.2,0c-2.9-0.6-4.7-2.9-4.5-6c0.1-2.7,1.9-5.7,5.2-6c0.5-0.1,1,0.3,1.1,0.9
							c0.1,0.5-0.3,1-0.9,1.1c-2.1,0.2-3.3,2.3-3.4,4.2c-0.1,1.6,0.7,3.5,3,4c0.5,0.1,0.9,0.6,0.8,1.1
							C-750.7,422-751.1,422.3-751.5,422.3z"/>
					</g>
					<g>
						<path class="st6" d="M-746.7,414.1c-2.6,0-4.4-1.6-5.2-3.5c-1-2.3-0.5-5.6,2.7-7.4c0.5-0.3,1.1-0.1,1.3,0.4
							c0.3,0.5,0.1,1.1-0.4,1.3c-2.1,1.1-2.4,3.3-1.8,4.9c0.6,1.4,2.2,2.9,4.8,2.1c0.5-0.1,1.1,0.1,1.2,0.7s-0.1,1.1-0.7,1.2
							C-745.4,414-746.1,414.1-746.7,414.1z"/>
					</g>
					<g>
						<path class="st6" d="M-752.6,429.4c-0.4,0-0.8-0.3-0.9-0.7c-0.4-1.4-0.3-3,0.3-4.4c0.2-0.5,0.8-0.7,1.3-0.5
							c0.5,0.2,0.7,0.8,0.5,1.3c-0.4,0.9-0.5,2-0.2,3c0.2,0.5-0.1,1.1-0.7,1.2C-752.4,429.4-752.5,429.4-752.6,429.4z"/>
					</g>
				</g>
				<g>
					<g>
						<path class="st6" d="M-730,435.7c-4.7,0-8.5-3.8-8.5-8.5c0-0.5,0.4-1,1-1c0.5,0,1,0.4,1,1c0,3.6,3,6.6,6.6,6.6
							c3.2,0,5.9-2.3,6.5-5.4c0.1-0.5,0.5-0.8,1-0.8c0.2,0,0.3,0,0.3,0c2.7,0,4.9-2.2,4.9-4.9c0-1.7-0.9-3.3-2.4-4.2
							c-0.3-0.2-0.5-0.5-0.5-0.8c0-0.3,0.2-0.7,0.5-0.8c1.5-0.9,2.4-2.5,2.4-4.2c0-1.8-1-3.5-2.7-4.4c-0.2-0.1-0.4-0.4-0.5-0.6
							s0-0.5,0.1-0.8c0.5-0.8,0.8-1.7,0.8-2.6c0-3.1-2.8-5.6-6.1-4.8c-0.3,0.1-0.6,0-0.8-0.1c-0.2-0.2-0.4-0.4-0.4-0.7
							c-0.3-2.5-2.4-4.4-4.9-4.4c-2.7,0-4.9,2.2-4.9,4.9v19.5c0,0.5-0.4,1-1,1c-0.5,0-1-0.4-1-1v-19.5c0-3.8,3.1-6.9,6.9-6.9
							c3.2,0,5.8,2.1,6.6,5.1c4.1-0.4,7.5,2.8,7.5,6.8c0,1-0.2,2-0.6,2.8c1.8,1.3,2.9,3.3,2.9,5.6c0,2-0.8,3.8-2.2,5
							c1.4,1.3,2.2,3.1,2.2,5c0,3.7-2.9,6.7-6.5,6.9C-722.8,433.2-726.1,435.7-730,435.7z"/>
					</g>
					<g>
						<path class="st6" d="M-723.5,422.3c-0.5,0-0.9-0.3-1-0.8c-0.1-0.5,0.2-1,0.8-1.1c2.3-0.5,3-2.4,3-4c-0.1-1.9-1.3-4-3.4-4.2
							c-0.5-0.1-0.9-0.5-0.9-1.1c0.1-0.5,0.5-0.9,1.1-0.9c3.2,0.4,5,3.3,5.2,6c0.1,3-1.6,5.4-4.5,6
							C-723.4,422.3-723.5,422.3-723.5,422.3z"/>
					</g>
					<g>
						<path class="st6" d="M-728.4,414.1c-0.6,0-1.3-0.1-2-0.3c-0.5-0.1-0.8-0.7-0.7-1.2c0.2-0.5,0.7-0.8,1.2-0.7
							c2.6,0.8,4.2-0.6,4.8-2.1c0.6-1.5,0.3-3.8-1.8-4.9c-0.5-0.3-0.6-0.8-0.4-1.3c0.3-0.5,0.8-0.7,1.3-0.4c3.2,1.7,3.7,5,2.7,7.4
							C-724,412.5-725.8,414.1-728.4,414.1z"/>
					</g>
					<g>
						<path class="st6" d="M-722.4,429.4c-0.1,0-0.2,0-0.3,0c-0.5-0.1-0.8-0.7-0.7-1.2c0.3-1,0.2-2.1-0.2-3c-0.2-0.5,0-1.1,0.5-1.3
							s1.1,0,1.3,0.5c0.6,1.4,0.7,2.9,0.3,4.4C-721.6,429.1-722,429.4-722.4,429.4z"/>
					</g>
				</g>
			</g>
		</g>
		<g>
			<rect x="-775" y="523.3" class="st7" width="75.3" height="62.8"/>
			<rect x="-699.8" y="523.3" class="st8" width="240" height="62.8"/>
			<g>
				<text transform="matrix(1 0 0 1 -683.5342 546.7773)" class="st6 st41" style="font-size:20.4573px;">Practice some</text>
				<text transform="matrix(1 0 0 1 -683.5342 572.7673)" class="st6 st41" style="font-size:20.4573px;">Self Care</text>
			</g>
			<g>
				<g>
					<path class="st6" d="M-720.3,577.1h-35.2c-0.5,0-1-0.4-1-1c0-10.8,7.8-18.6,18.6-18.6s18.6,7.8,18.6,18.6
						C-719.3,576.6-719.7,577.1-720.3,577.1z M-754.5,575.1h33.2c-0.5-9.1-7.3-15.6-16.6-15.6C-747.2,559.5-754,566-754.5,575.1z"/>
				</g>
				<g>
					<path class="st6" d="M-737.9,554.7c-6.2,0-11.3-5.1-11.3-11.3s5.1-11.3,11.3-11.3s11.3,5.1,11.3,11.3S-731.7,554.7-737.9,554.7
						z M-737.9,534.1c-5.2,0-9.3,4.2-9.3,9.3c0,5.2,4.2,9.3,9.3,9.3c5.2,0,9.3-4.2,9.3-9.3S-732.7,534.1-737.9,534.1z"/>
				</g>
			</g>
		</g>
		<g>
			<rect x="-775" y="663.8" class="st7" width="75.3" height="62.8"/>
			<rect x="-699.8" y="663.8" class="st8" width="240" height="62.8"/>
			<g>
				<text transform="matrix(1 0 0 1 -683.2217 687.6592)" class="st6 st41" style="font-size:20.4573px;">Eat a Balanced</text>
				<text transform="matrix(1 0 0 1 -683.2217 713.6492)" class="st6 st41" style="font-size:20.4573px;">Diet</text>
			</g>
			<g>
				<g>
					<path class="st6" d="M-733.5,716.9c-1.2,0-2.4-0.2-3.6-0.5c-1.2,0.3-2.4,0.5-3.6,0.5c-7.9,0-14.3-6.6-14.3-14.7
						s6.4-14.7,14.3-14.7c1.2,0,2.4,0.2,3.6,0.5c1.2-0.3,2.4-0.5,3.6-0.5c7.9,0,14.3,6.6,14.3,14.7
						C-719.2,710.3-725.6,716.9-733.5,716.9z M-737.1,714.4c0.1,0,0.2,0,0.3,0c1.1,0.3,2.2,0.5,3.3,0.5c6.8,0,12.4-5.7,12.4-12.7
						c0-7-5.5-12.7-12.4-12.7c-1.1,0-2.2,0.2-3.3,0.5c-0.2,0-0.4,0-0.5,0c-1.1-0.3-2.2-0.5-3.3-0.5c-6.8,0-12.3,5.7-12.3,12.7
						c0,7,5.5,12.7,12.3,12.7c1.1,0,2.2-0.2,3.3-0.5C-737.2,714.4-737.2,714.4-737.1,714.4z"/>
				</g>
				<g>
					<path class="st6" d="M-737,688.8c-0.1,0-0.2,0-0.2,0c-0.2,0-4.8-1.3-7.3-5s-1.8-8.5-1.8-8.7c0-0.3,0.2-0.5,0.4-0.7
						c0.2-0.2,0.5-0.2,0.8-0.1c0.2,0,4.8,1.3,7.3,5s1.8,8.5,1.8,8.7c0,0.3-0.2,0.5-0.4,0.7C-736.7,688.7-736.9,688.8-737,688.8z
						 M-744.6,676.5c0,1.5,0.2,4,1.6,6.1c1.4,2.1,3.7,3.3,5,3.8c0-1.5-0.2-4-1.6-6.1C-740.9,678.3-743.2,677.1-744.6,676.5z"/>
				</g>
				<g>
					<path class="st6" d="M-736.7,690.3c-0.5,0-0.9-0.3-1-0.8c-0.7-4,0.8-7.5,4-9.8c0.4-0.3,1-0.2,1.3,0.3c0.3,0.4,0.2,1-0.3,1.4
						c-2.6,1.8-3.8,4.6-3.2,7.8c0.1,0.5-0.3,1-0.8,1.1C-736.6,690.3-736.6,690.3-736.7,690.3z"/>
				</g>
			</g>
		</g>
	</g>
	<g>
		
			<radialGradient id="SVGID_1_" cx="587" cy="146.3935" r="496.3652" gradientTransform="matrix(1 0 0 1.0503 0 253.7429)" gradientUnits="userSpaceOnUse">
			<stop  offset="0" style="stop-color:#41378C"/>
			<stop  offset="0.2209" style="stop-color:#3B3286"/>
			<stop  offset="0.5264" style="stop-color:#292377"/>
			<stop  offset="0.8798" style="stop-color:#0C0A5D"/>
			<stop  offset="1" style="stop-color:#000053"/>
		</radialGradient>
		<rect x="2" class="st9" width="1170" height="815"/>
		<polygon class="st8" points="-638.3,167.4 -827.3,183.8 -827.3,140 -638.3,123.6 		"/>
		<text transform="matrix(1 0 0 1 -1119.7544 110.2144)" style="fill:#DFFF14; font-family:'Roboto-Bold'; font-size:48.1994px;">Strategies to </text>
		<text transform="matrix(1 0 0 1 -1119.7544 171.4544)" style="fill:#DFFF14; font-family:'Roboto-Bold'; font-size:48.1994px;">Manage your</text>
		<text transform="matrix(1 0 0 1 -837.2844 171.4544)" class="st18" style="font-family:'Roboto-Bold'; font-size:48.1994px;"> </text>
		<text transform="matrix(1 0 0 1 -825.2844 171.4544)" class="st6" style="font-family:'Roboto-Bold'; font-size:48.1994px;">Anxiety</text>
	</g>
	<g>
		<g>
			<g>
				<path class="st6" d="M-382.3,190.4c-0.2,0-0.4-0.1-0.5-0.2l-11.1-7.4c-0.5-0.3-0.6-0.9-0.3-1.4c0.3-0.4,0.9-0.6,1.3-0.3
					l10.5,7.1l11-7.5c0.3-0.2,0.8-0.2,1.1,0l10.5,7.1l11-7.5c0.3-0.2,0.8-0.2,1.1,0l11.5,7.7c0.5,0.3,0.6,0.9,0.3,1.4
					c-0.3,0.4-0.9,0.6-1.3,0.3l-10.9-7.3l-11,7.5c-0.3,0.2-0.8,0.2-1.1,0l-10.5-7.1l-11,7.5C-381.9,190.4-382.1,190.4-382.3,190.4z"
					/>
			</g>
			<g>
				<path class="st6" d="M-310.4,167.8c-0.4,0-0.8-0.3-0.9-0.7l-3.7-12.6l-13.3-1.3c-0.4,0-0.7-0.3-0.8-0.7l-3.6-12.2l-13.3-1.3
					c-0.4,0-0.7-0.3-0.8-0.7l-3.8-12.8c-0.2-0.5,0.1-1.1,0.7-1.2c0.5-0.2,1.1,0.1,1.2,0.7l3.6,12.2l13.3,1.3c0.4,0,0.7,0.3,0.8,0.7
					l3.6,12.2l13.3,1.3c0.4,0,0.7,0.3,0.8,0.7l3.9,13.2c0.2,0.5-0.1,1.1-0.7,1.2C-310.2,167.8-310.3,167.8-310.4,167.8z"/>
			</g>
			<g>
				<path class="st6" d="M-281.3,153.8c-0.1,0-0.3,0-0.4-0.1c-0.5-0.2-0.7-0.8-0.5-1.3l5.8-11.8l-8.9-9.9c-0.3-0.3-0.3-0.7-0.2-1.1
					l5.6-11.4l-8.9-9.9c-0.3-0.3-0.3-0.7-0.2-1.1l5.9-12c0.2-0.5,0.8-0.7,1.3-0.4c0.5,0.2,0.7,0.8,0.4,1.3l-5.6,11.4l8.9,9.9
					c0.3,0.3,0.3,0.7,0.2,1.1l-5.6,11.4l8.9,9.9c0.3,0.3,0.3,0.7,0.2,1.1l-6.1,12.4C-280.6,153.6-280.9,153.8-281.3,153.8z"/>
			</g>
			<g>
				<path class="st6" d="M-246.4,161.7c-0.3,0-0.6-0.1-0.8-0.4c-0.3-0.4-0.2-1.1,0.3-1.4l11-7.2l-2.6-13.1c-0.1-0.4,0.1-0.8,0.4-1
					l10.6-7l-2.6-13.1c-0.1-0.4,0.1-0.8,0.4-1l11.2-7.3c0.5-0.3,1-0.2,1.3,0.3s0.2,1.1-0.3,1.3l-10.6,7l2.6,13.1
					c0.1,0.4-0.1,0.8-0.4,1l-10.6,7l2.6,13.1c0.1,0.4-0.1,0.8-0.4,1l-11.5,7.6C-246,161.6-246.2,161.7-246.4,161.7z"/>
			</g>
			<g>
				<path class="st6" d="M-211.2,184.4c-0.1,0-0.2,0-0.3-0.1l-13-4.6c-0.5-0.2-0.8-0.7-0.6-1.3s0.7-0.8,1.3-0.6l12.4,4.4l8.9-9.9
					c0.3-0.3,0.7-0.4,1.1-0.3l11.9,4.3l8.9-9.9c0.3-0.3,0.7-0.4,1.1-0.3l12.6,4.5c0.5,0.2,0.8,0.7,0.6,1.3s-0.7,0.8-1.3,0.6
					l-11.9-4.3l-8.9,9.9c-0.3,0.3-0.7,0.4-1.1,0.3l-11.9-4.3l-8.9,9.9C-210.7,184.2-210.9,184.4-211.2,184.4z"/>
			</g>
		</g>
		<g>
			<g>
				<path class="st10" d="M-436.9,277.2l70.5-39.9l16.2,20.1c0,0-49.5,36.2-70.6,54.6C-425.2,299.9-436.9,277.2-436.9,277.2z"/>
			</g>
			<path class="st6" d="M-397.6,246.3c13.3,10.3,25.6,39.5,25.6,39.5l-79,54.2c0-0.1,107.9,29.7,107.9,29.7l-25.9,94.9
				c0,0-149.2-75-153.3-116.1C-526.1,310.5-397.6,246.3-397.6,246.3z"/>
			<path class="st11" d="M-324.7,263c1.8-3-4.7-6.9-12.7-7.1c0,0,32.5-15.6,30.4-21c-1.8-4.6-30.1,7.3-30.1,7.3s33.5-19.6,30.2-24.9
				c-2.8-4.4-34.9,14.3-34.9,14.3s25-17.3,21.7-22.5c-3.1-4.8-28.9,16.6-28.9,16.6s11.7-11.4,8.8-14.8c-3.6-4.3-42,30.6-31.6,48.5
				C-369.3,263.7-327.4,267.4-324.7,263z"/>
		</g>
		<g>
			<polygon class="st12" points="-131.4,796 -371.3,796 -382,635.1 -150.9,631.2 			"/>
			<path class="st13" d="M-377.1,711.2c110.5,17.7,201.8-7.3,233.9-15l-7.7-65l-231.1,3.9L-377.1,711.2z"/>
			<g>
				<g>
					<path class="st13" d="M-254.8,795.5c-0.5,0-0.9-0.3-1-0.8l-1.6-7.9c-1.5,0-3.8-0.6-5.8-1.6c-8.2-3.8-21.4-16.9-17.9-61
						c0-0.5,0.5-0.9,1-0.9s0.9,0.5,0.9,1c-2.7,34.7,5,49.5,11.9,55.8c4.8,4.3,9.3,4.8,10.3,4.7c0,0,0.1,0,0.1,0
						c0.5-0.2,1,0.1,1.2,0.5c0,0.1,0,0.1,0.1,0.2l1.8,8.8c0.1,0.5-0.2,1-0.8,1.2C-254.6,795.5-254.7,795.5-254.8,795.5z"/>
				</g>
			</g>
			<g>
				<path class="st13" d="M-144.6,795.5c-0.5,0-0.9-0.3-1-0.8l-15.3-84.8c-0.1-0.5,0.3-1,0.8-1.1s1,0.3,1.1,0.8l15.3,84.8
					c0.1,0.5-0.3,1-0.8,1.1C-144.5,795.5-144.5,795.5-144.6,795.5z"/>
			</g>
		</g>
		<g>
			<path class="st6" d="M-152.9,608.8c-0.9-76.8-0.6-153.7,0.8-230.5c-81.7-15.2-132.4-20.1-221.9-4.2
				c-3.4,57.3-15.8,309.7-15.8,309.7c131.6,24.4,249.6-9.8,249.6-9.8S-151.7,620.9-152.9,608.8z"/>
			<path class="st14" d="M-223.2,367.3c-32-3.5-62.1-4-97.3-0.6C-304.2,421.3-243,421.9-223.2,367.3z"/>
			<path class="st15" d="M-228.9,366.8c0,0,0-0.1,0-0.1c-28.1-2.8-55-3.2-85.7-0.6c0,0.2,0.1,0.4,0.2,0.6
				C-301.8,413-244.6,413.4-228.9,366.8z"/>
			<g class="st16">
				<path class="st7" d="M-152.9,608.8c-0.3-23.9-0.4-47.9-0.5-71.8c-23.4,79.7-100.3,138.1-191.5,138.1c-15.2,0-30-1.6-44.2-4.7
					c-0.4,8.6-0.7,13.5-0.7,13.5c131.6,24.4,249.6-9.8,249.6-9.8S-151.7,620.9-152.9,608.8z"/>
			</g>
			<g>
				<path class="st7" d="M-340.4,626.6c-3.4,0-6.7-0.1-10.1-0.3c-0.5,0-1-0.5-0.9-1c0-0.5,0.5-1,1-0.9c63,3.7,126.3-28,161.1-80.6
					c0.3-0.5,0.9-0.6,1.3-0.3c0.5,0.3,0.6,0.9,0.3,1.3C-221,595.2-280.1,626.6-340.4,626.6z"/>
			</g>
		</g>
		<g>
			<g>
				<path class="st10" d="M-334.1,268c-25.7,1.8-9.8,35.6-2.6,34.4C-321.4,301.3-321,267.1-334.1,268z"/>
			</g>
			<g>
				<path class="st17" d="M-247.4,289.6c-19.5-4.4-39-8.9-58.6-13.5c2.6,32.8,5.4,65.6,8.3,98.4c2.5,27.6,54.4,27.2,53.2,1.5
					C-244.7,375.9-247.6,289.6-247.4,289.6z"/>
				<path class="st10" d="M-302.9,314.8c1.4,16.5,2.8,32.9,4.3,49.4c45.3,8.6,40.4-33.3,40.4-33.3S-291.7,305.4-302.9,314.8z"/>
			</g>
			<g>
				<path class="st15" d="M-233.8,297.8c20.5,0,31.7-39.8,0.2-36.6C-232,273.4-235.5,285.5-233.8,297.8z"/>
			</g>
			<g>
				<path class="st17" d="M-227.8,234.4c-2-17.6-93-41.7-102.5-18.6c-9.3,21.8-30.2,141.4,46.7,140.3
					C-244.5,355.7-219.5,307.8-227.8,234.4z"/>
			</g>
			<path class="st18" d="M-339.2,204.1"/>
			<g>
				<path class="st19" d="M-252.8,297.9c-0.9,3.1-17.3,1.1-36.7,2.7c-19.5,1.3-35.4,5.8-36.7,2.9c-1.4-2.8,14-12.7,35.8-14.3
					C-268.6,287.4-251.8,295-252.8,297.9z"/>
				<g>
					<path class="st10" d="M-296.8,303.4c-1.1,0-2.1-0.2-2.7-0.7c-4.2-3.7-0.8-20-0.4-21.9c0.1-0.5,0.6-0.9,1.2-0.8
						c0.5,0.1,0.9,0.6,0.7,1.2c-1.4,6.5-2.7,17.8-0.2,20c0.7,0.6,4.8-0.1,7.9-1.1c0.5-0.2,1.1,0.1,1.2,0.6s-0.1,1.1-0.6,1.2
						C-290.9,302.4-294.3,303.4-296.8,303.4z"/>
				</g>
				<g>
					<path class="st10" d="M-308.1,318.4c-0.3,0-0.6-0.1-0.8-0.4c-0.3-0.4-0.3-1,0.2-1.4c12.5-9.8,24.7-8.2,32.8-6.2
						c0.5,0.1,0.8,0.7,0.7,1.2c-0.1,0.5-0.7,0.8-1.2,0.7c-12.4-3.1-22-1.4-31.1,5.8C-307.7,318.3-307.9,318.4-308.1,318.4z"/>
				</g>
				<g>
					<g>
						<path class="st13" d="M-301,278.8c-8.7,0-23.7-3.8-24.3-4c-0.5-0.1-0.8-0.7-0.7-1.2c0.1-0.5,0.7-0.8,1.2-0.7
							c0.2,0,17.1,4.3,25.2,3.9c0.5,0,1,0.4,1,0.9s-0.4,1-0.9,1C-300,278.8-300.5,278.8-301,278.8z"/>
					</g>
					<g>
						<path class="st13" d="M-289.9,277.8c-0.5,0-0.9-0.4-1-0.9c-0.1-0.5,0.3-1,0.8-1.1c11.9-1.4,26.8-9.5,27-9.6
							c0.5-0.3,1.1-0.1,1.3,0.4c0.3,0.5,0.1,1.1-0.4,1.3c-0.6,0.3-15.4,8.4-27.7,9.9C-289.8,277.8-289.8,277.8-289.9,277.8z"/>
					</g>
					<g>
						<g>
							<path class="st10" d="M-305.8,285.9c-0.1,0-0.2,0-0.3-0.1c-3.2-1.1-6.2-2.7-9-4.5c-0.5-0.3-0.6-0.9-0.3-1.4s0.9-0.6,1.3-0.3
								c2.7,1.8,5.6,3.3,8.6,4.3c0.5,0.2,0.8,0.7,0.6,1.3C-305,285.6-305.4,285.9-305.8,285.9z"/>
						</g>
						<g>
							<path class="st10" d="M-315.3,289.7c-0.4,0-0.8-0.2-0.9-0.6c-0.2-0.5,0.1-1.1,0.6-1.3l9.5-3.6c0.5-0.2,1.1,0.1,1.3,0.6
								c0.2,0.5-0.1,1.1-0.6,1.3l-9.5,3.6C-315,289.7-315.1,289.7-315.3,289.7z"/>
						</g>
					</g>
					<g>
						<g>
							<path class="st10" d="M-279.7,283.7c-0.3,0-0.7-0.2-0.8-0.5c-0.3-0.5-0.1-1.1,0.3-1.3c2.8-1.7,5.3-3.7,7.5-6
								c0.4-0.4,1-0.4,1.4,0c0.4,0.4,0.4,1,0,1.4c-2.4,2.4-5,4.5-7.9,6.3C-279.3,283.6-279.5,283.7-279.7,283.7z"/>
						</g>
						<g>
							<path class="st10" d="M-269.7,285.5c0,0-0.1,0-0.2,0l-10-1.6c-0.5-0.1-0.9-0.6-0.8-1.1c0.1-0.5,0.6-0.9,1.1-0.8l10,1.6
								c0.5,0.1,0.9,0.6,0.8,1.1C-268.8,285.1-269.2,285.5-269.7,285.5z"/>
						</g>
					</g>
				</g>
			</g>
			<g>
				<path class="st18" d="M-252.5,205.9c-15.3,0.1,5.7,74.7,22.2,71C-221,274.7-200.2,205.6-252.5,205.9z"/>
			</g>
			<path class="st19" d="M-280.7,354.3c-76.9,1-56-118.6-46.7-140.3c0.7-1.6,1.7-2.9,3-4.1c-2.8,1.5-4.9,3.5-6,6.1
				c-9.3,21.8-30.2,141.4,46.7,140.3c9.6-0.1,18.3-3.1,25.9-8.6C-264.6,351.9-272.3,354.1-280.7,354.3z"/>
			<g>
				<path class="st20" d="M-235.5,189.8c-3.5-9.1-10.1-16.7-19.8-20.6c-8.7-3.5-18.9-3.2-27.4,0.8c-1.2,0.5-2.4,1.3-2.7,2.5
					c-0.5,2,1.5,3.6,3.3,4.6c2.8,1.5,5.6,2.8,8.5,3.9c-2.7-1.1-10.2,1.9-13,2.6c-4.7,1.1-9.4,2.5-14,4c-9.2,3.1-18.3,6.8-26.8,11.5
					c-12.6,6.9-28.6,17.7-30.8,33.2c-1,7.2,0.9,13.3,8.2,15.9c23.4,8.5,51.6,8.8,75.6,2.6c16-4.1,32.3-12.8,38.8-29
					C-231.7,211.6-231.6,199.9-235.5,189.8z"/>
			</g>
			<g>
				<g>
					<path class="st13" d="M-271.5,244c-24,6.2-80.2,6.9-83.8-18.6c-0.1-0.6-0.1-1.2-0.1-1.8c-1.4,2.7-2.4,5.6-2.8,8.6
						c-1,7.2,0.9,13.3,8.2,15.9c23.4,8.5,51.6,8.8,75.6,2.6c16-4.1,32.3-12.8,38.8-29c0.3-0.8,0.6-1.7,0.9-2.5
						C-242.2,232.8-257,240.3-271.5,244z"/>
				</g>
			</g>
		</g>
		<g>
			<g>
				<path class="st17" d="M-196.7,212c-2.5-2.5-7.8,2.9-9.9,10.6c0,0-7.3-35.3-13.1-34.6c-4.9,0.6-0.1,31-0.1,31s-11-37.2-16.9-35.3
					c-5,1.7,5.5,37.3,5.5,37.3s-10.8-28.4-16.6-26.4c-5.4,1.8,9.2,32.1,9.2,32.1c0,0-9.8-14.6-13.7-12.7c-5,2.5,21,48.7,41,42.9
					C-206.7,255.5-193,215.7-196.7,212z"/>
				<path class="st15" d="M-134.4,266.4c-22.3-10.5-44.6-21-66.9-31.5c-3.8,8.2-18.3,20.1-18.3,20.1s54.1,34.4,77.8,49.3
					C-139.5,291.6-137,279-134.4,266.4z"/>
				<path class="st10" d="M-191.2,239.6c18.9,8.9,37.8,17.8,56.7,26.7c-2.5,12.6-5,25.3-7.5,37.9c-21.1-13.3-38.2-24-59.3-37.4
					C-198.7,258.2-194,244.9-191.2,239.6z"/>
			</g>
			<path class="st6" d="M-175.4,237.3c-11.5,12.2-19.2,43-19.2,43l86.4,41.3c0-0.1-112,46.4-112,46.4l53.6,91.6
				c0,0,132.4-99.6,130.2-140.7C-38.4,280.9-175.4,237.3-175.4,237.3z"/>
		</g>
	</g>
	<g>
		<path class="st6" d="M707.7,564c25.5,0,50.4-7.8,71.1-22.7c0.1-0.1,0.2-0.2,0.3-0.3c104.5-75.5,152.9-187,108-249.2
			c-19.6-27.2-53.9-40.4-95-40.4c-32.5,0.1-62.7-16.7-79.8-44.3c-2-3.2-4.1-6.3-6.3-9.4c-43.7-60.5-119.8-80.1-170.2-43.8
			c-7.6,5.5-14.3,12-19.8,19.3c-21,27.4-53,43.8-87.4,47.3c-24.5,2.5-48.1,11-68.8,25.9c-70.3,50.7-80.5,156.6-22.9,236.4
			c37.6,52,144.2,75.6,167.2,81H707.7z"/>
		<g>
			<path class="st21" d="M266.4,625.9H350c1.6,0,2.8,1.3,2.8,2.8v8.2c0,1.6-1.3,2.8-2.8,2.8h-83.7c-1.6,0-2.8-1.3-2.8-2.8v-8.2
				C263.5,627.2,264.8,625.9,266.4,625.9z"/>
			<g>
				<path class="st22" d="M319.7,511.6c15.2,2.9,30.6-5.8,35.8-20.4c2.4-6.7,2.5-13.6,0.6-19.8c-2.7-9-2.6-18.7,1-27.4
					c1.6-4,3.1-8.3,4.3-12.8c7-26.4,3.2-50.3-8.5-53.4c-11.7-3.1-26.8,15.8-33.8,42.1c-1.2,4.5-2.1,9-2.7,13.3
					c-1.3,9.3-6,17.8-12.8,24.3c-4.1,3.9-7.1,8.9-8.7,14.8C290.2,489.9,301.4,508.1,319.7,511.6z M342.4,405.6
					c-0.3,2.4-2.4,4-4.8,3.8s-4.1-2.4-3.8-4.8c0.3-2.4,2.4-4,4.8-3.8C341,401.1,342.7,403.2,342.4,405.6z M340.3,462.6
					c-0.2,1.6-1.7,2.8-3.3,2.6s-2.8-1.7-2.6-3.3c0.2-1.6,1.7-2.8,3.3-2.6S340.4,461,340.3,462.6z M337.5,476.8
					c0.1-1.2,1.2-2,2.3-1.9c1.2,0.1,2,1.2,1.9,2.4c-0.1,1.2-1.2,2-2.3,1.9C338.2,479,337.4,478,337.5,476.8z M324.3,491.5
					c0.3-2.8,2.9-4.9,5.7-4.5c2.8,0.3,4.9,2.9,4.6,5.7c-0.3,2.8-2.9,4.9-5.7,4.5C326.1,496.9,324,494.4,324.3,491.5z M329.3,426.6
					c0.2-1.3,1.3-2.3,2.6-2.1s2.3,1.3,2.1,2.6c-0.2,1.3-1.3,2.3-2.6,2.1C330.1,429.1,329.1,427.9,329.3,426.6z M328.7,415.9
					c0.2-1.4,1.4-2.5,2.9-2.3s2.4,1.5,2.3,2.9s-1.4,2.5-2.9,2.3S328.6,417.4,328.7,415.9z"/>
				<path class="st23" d="M202.6,367.1c-11.8,10.8-13,23-8.7,34c0.5,1.2,2.9,1.2,5.2,0.1c4.4-2.2,7.1,0.3,3.5,3
					c-1.1,0.8-2.1,1.6-3.2,2.4c-1.3,1-1.9,2.2-1.4,3c3.9,6.5,9.1,13,14.5,19.5c3.5,4,11.9,4.1,19,1c5.4-2.5,10.9-4.6,16.6-6.3
					c3.3-1,5.9,1.9,3.5,3.6c-5.2,3.8-10,8-14.5,12.5c-5.4,5.4-5.5,12.4-1.7,17.3c3.7,4.8,7,9.5,10.1,13.7c0.6,0.9,1.3,1.7,1.8,2.5
					c0.8,1.1,2.4,1.2,3.4,0.2c3.9-3.6,8.1-7,12.7-10c2.1-1.4,4.9,0.9,3.7,3.1c-2.1,3.8-4.1,7.7-6,11.6c-2.4,5.2-0.5,11.2,3.6,13.6
					c10,6.1,23.3,3.1,40.4,7.2c1.2,0.3,2.2-0.6,2.3-2.1c-0.4-4.8,0.3-16.1-2.8-30.8c-2.9-14.6-9.6-32.5-20.4-48.4
					c-10.6-16-25.3-29.8-39.9-38.5c-14.4-8.9-28.7-12.5-34.4-14.3C207.8,364.4,204.4,365.5,202.6,367.1z M229.4,417
					c-1.7,0.7-3.7,0.6-4.5-0.3c-0.8-0.9-0.1-2.4,1.7-3.2c8.3-3.8,17-6.7,25.8-8.7c1.8-0.4,3.9,0.2,4.5,1.4c0.5,0.9-0.1,1.9-1.3,2.5
					c-0.3,0.1-0.6,0.2-0.9,0.3C246,410.7,237.5,413.4,229.4,417z M256.1,450.8c-0.1,0.1-0.2,0.1-0.3,0.2c-1.1,0.6-2.5,0.4-3.4-0.4
					c-0.9-0.9-0.9-2.3,0.3-3.1c7.3-5.3,15.3-9.8,23.8-13.4c1.3-0.5,3.2,0,4.1,1.2c0.9,1.2,0.6,2.5-0.8,3
					C271.3,441.6,263.3,445.8,256.1,450.8z M292.2,465c-3.1,4.1-6.1,8.3-9,12.6c-0.3,0.5-0.8,0.7-1.3,0.8c-0.6,0.1-1.2,0-1.8-0.5
					c-1-0.8-1.3-2.2-0.7-3.2c2.8-4.4,5.6-8.7,8.5-13c0.7-1,2.2-1.1,3.4-0.1C292.5,462.5,292.9,464,292.2,465z"/>
				<path class="st24" d="M303.2,480.5c0,0,4.2,34-2.3,91.7"/>
				<g>
					<path class="st23" d="M336.1,427.6c-2.8,5.4-5.1,11-7.1,16.6l-1.5,4.3c-0.5,1.4-0.9,2.9-1.3,4.3c-0.4,1.4-0.9,2.9-1.3,4.3
						l-1.2,4.4c-3.1,11.6-5.1,23.5-6.5,35.5c-0.4,6-1.1,12-1.2,18l-0.1,4.5c0,1.5-0.2,3-0.1,4.5l0.1,9l0.1,4.5l0.3,4.5l0.6,9
						c0.1,1.5,0.3,3,0.4,4.5l0.5,4.5l1.1,9l-2,0.3l-1.1-9l-0.6-4.5c-0.2-1.5-0.4-3-0.5-4.5l-0.6-9.1l-0.3-4.5l-0.1-4.5l-0.1-9.1
						c0-3,0.2-6.1,0.3-9.1c0.1-6.1,0.9-12.1,1.4-18.1c0.9-6,1.6-12,2.8-18l0.9-4.5l1.1-4.4l1.1-4.4c0.3-1.5,0.8-2.9,1.2-4.4l1.3-4.4
						c0.4-1.5,1-2.9,1.4-4.3c0.5-1.4,1-2.9,1.5-4.3l1.7-4.2C330.5,438.4,333,432.8,336.1,427.6z"/>
				</g>
				<path class="st6" d="M261.4,567.5c-0.8,3.5-1.3,7.2-1.3,11c0,26.2,21.2,47.4,47.4,47.4s47.4-21.2,47.4-47.4
					c0-3.8-0.5-7.5-1.3-11H261.4z"/>
			</g>
		</g>
		<g>
			<path class="st25" d="M872.1,534.3c38.9,21.8,47.7,51.1,52.1,49.5c1.8-0.4,2.5-7.7-2.1-19.4c-4.6-11.5-14.5-27.5-34-40.5
				c-19-13.3-43.3-19.1-62.3-19.3c-19.2-0.5-33.2,4.6-34.9,7.1C786.5,517.6,833.6,512,872.1,534.3z"/>
			<path class="st25" d="M821.7,510.7c54.9,4,92.5,38.5,102.4,73.1"/>
			<path class="st25" d="M859.2,528c5.3-0.9,10.7-1.5,16.1-1.7c-0.2-3.3-0.4-6.6-0.6-10"/>
			<path class="st25" d="M877.5,537.3c4.9-0.2,9.9,0,14.8,0.5c0.3-3.3,0.5-6.6,0.8-10"/>
			<path class="st25" d="M891.6,547.9c4.5,0.4,9,1.2,13.4,2.2c0.7-3.3,1.4-6.5,2.1-9.8"/>
			<path class="st25" d="M892.9,493.2c32.6,45,27.2,82.6,33,83.1c2.2,0.5,6.9-7.3,7.8-23c0.8-15.4-2.1-38.6-17.2-63.5
				c-14.5-25-38.9-44.2-60.3-54.4c-21.4-10.6-39.9-12.2-43.1-10.2C805.1,429.6,861.1,447.9,892.9,493.2z"/>
			<path class="st25" d="M848.4,440.2c60,33.2,84.4,91.9,77.5,136.1"/>
			<path class="st25" d="M881.7,479.3c6.5,1.8,12.8,3.9,19,6.4c1.5-3.9,3-7.7,4.5-11.6"/>
			<path class="st25" d="M897.6,499.4c5.6,2.4,11.1,5.2,16.4,8.3c2-3.6,4.1-7.2,6.1-10.8"/>
			<path class="st25" d="M908,518.7c4.8,2.8,9.5,6,14,9.4c2.5-3.3,5-6.6,7.5-9.9"/>
			<g>
				<path class="st25" d="M977.9,493.2c-32.6,45-27.2,82.6-33,83.1c-2.2,0.5-6.9-7.3-7.8-23c-0.8-15.4,2.1-38.6,17.2-63.5
					c14.5-25,38.9-44.2,60.3-54.4c21.4-10.6,39.9-12.2,43.1-10.2C1065.8,429.6,1009.7,447.9,977.9,493.2z"/>
				<path class="st25" d="M1022.4,440.2c-60,33.2-84.4,91.9-77.5,136.1"/>
				<path class="st25" d="M989.1,479.3c-6.5,1.8-12.8,3.9-19,6.4c-1.5-3.9-3-7.7-4.5-11.6"/>
				<path class="st25" d="M973.2,499.4c-5.6,2.4-11.1,5.2-16.4,8.3c-2-3.6-4.1-7.2-6.1-10.8"/>
				<path class="st25" d="M962.8,518.7c-4.8,2.8-9.5,6-14,9.4c-2.5-3.3-5-6.6-7.5-9.9"/>
			</g>
			<g>
				<ellipse class="st22" cx="938.8" cy="456.6" rx="16.1" ry="135.1"/>
				<line class="st26" x1="938.8" y1="362.9" x2="938.8" y2="591.7"/>
				<polyline class="st26" points="954.4,432.3 938.8,448 923.1,432.3 				"/>
				<polyline class="st26" points="954.4,467.1 938.8,482.8 923.1,467.1 				"/>
				<polyline class="st26" points="954.4,498.9 938.8,514.5 923.1,498.9 				"/>
			</g>
			<path class="st21" d="M860.2,625.9h99.2c3.7,0,6.7,3,6.7,6.7l0,0c0,3.7-3,6.7-6.7,6.7h-99.2c-3.7,0-6.7-3-6.7-6.7l0,0
				C853.5,628.9,856.5,625.9,860.2,625.9z"/>
			<polygon class="st6" points="956.6,625.8 884.1,625.8 876.5,564.2 964.2,564.2 			"/>
		</g>
		<g>
			<path class="st27" d="M546.4,377.9c0,0-51.2,69.4-108.6,40.1c-60.6-30.9-41.3-103.9-41.3-103.9"/>
			<path class="st28" d="M546.4,377.9c0,0-51.2,69.4-108.6,40.1c-28.7-14.6-39.5-38.7-42.9-60"/>
			<path class="st29" d="M419.8,288.3c-3.8-3.8-9.8-3.8-13.6,0s-3.8,9.8,0,13.6s9.8,3.8,13.6,0"/>
			<path class="st29" d="M389.7,313c0,0,6-35.1,18.5-50.5"/>
			<path class="st29" d="M385.6,315c0,0,1.7-35.5,12.3-52.3"/>
			<path class="st27" d="M650.1,377.9c0,0,51.2,69.4,108.6,40.1c60.6-30.9,41.3-103.9,41.3-103.9"/>
			<path class="st28" d="M650.1,377.9c0,0,51.2,69.4,108.6,40.1c28.7-14.6,39.5-38.7,42.9-60"/>
			<path class="st29" d="M776.8,288.3c3.8-3.8,9.8-3.8,13.6,0s3.8,9.8,0,13.6s-9.8,3.8-13.6,0"/>
			<path class="st29" d="M806.9,313c0,0-6-35.1-18.5-50.5"/>
			<path class="st29" d="M811,315c0,0-1.7-35.5-12.3-52.3"/>
			<path class="st30" d="M662.9,533.6H533.7V365.4c0-2.4,1.9-4.4,4.4-4.4h120.4c2.4,0,4.4,2,4.4,4.4L662.9,533.6L662.9,533.6z"/>
			<path class="st31" d="M623.3,361c0,13.8-11.2,25-25.1,25s-25.1-11.2-25.1-25"/>
			<path class="st32" d="M615.4,362c0,9.4-7.7,17.1-17.1,17.1l0,0c-9.4,0-17.1-7.6-17.1-17.1v-26.1c0-9.4,7.7-17.1,17.1-17.1l0,0
				c9.4,0,17.1,7.6,17.1,17.1V362z"/>
			<path id="XMLID_22_" class="st32" d="M565.6,288.9c0,8.4-6.8,15.3-15.3,15.3s-15.3-6.8-15.3-15.3c0-8.4,6.8-15.3,15.3-15.3
				C558.7,273.7,565.6,280.5,565.6,288.9z"/>
			<path id="XMLID_19_" class="st32" d="M661.4,288.9c0,8.4-6.8,15.3-15.3,15.3s-15.3-6.8-15.3-15.3c0-8.4,6.8-15.3,15.3-15.3
				C654.5,273.7,661.4,280.5,661.4,288.9z"/>
			<path id="XMLID_18_" class="st33" d="M650,297.8c0,28.4-23,51.4-51.4,51.4l0,0c-28.4,0-51.4-23-51.4-51.4v-69.1H650L650,297.8
				L650,297.8z"/>
			<path id="XMLID_15_" class="st23" d="M651.8,226.7c0-17.1-13.9-31-31-31h-10.5c-12,0-23.7-3.3-34.1-9.3c-8.7-5.1-21.9-6.7-32,3.4
				c-9.1,9-8.5,20.7-5.1,29c2.9,7.1,4.7,14.5,4.7,22.1v34c4.5,5.1,10.3,2,10.3-2.5v-25.3c0-5.3,4.3-9.5,9.5-9.5h68.3
				c5.3,0,9.5,4.3,9.5,9.5v27.8c4.5,5.1,10.3,2,10.3-2.5L651.8,226.7L651.8,226.7L651.8,226.7L651.8,226.7z"/>
			<path id="XMLID_14_" class="st23" d="M559.6,236.4c0,0,8.7,13.1,27.5,13.1s18-12.4,43.7-13.6c0,0-20.7-7.4-36.4-7.4
				C578.7,228.5,559.6,236.4,559.6,236.4z"/>
			<path id="XMLID_13_" class="st6" d="M581.8,307.3c-1.8,0-2.8,1.9-1.9,3.4c3.8,6.3,10.8,10.6,18.7,10.5s14.8-4.3,18.6-10.7
				c0.9-1.5-0.2-3.4-1.9-3.4L581.8,307.3z"/>
			<g id="XMLID_12_">
				<path id="XMLID_16_" class="st23" d="M576.7,280c-4.1,0-7.9,1.9-10.2,5.2c-0.5,0.7-0.4,1.8,0.4,2.3s1.8,0.4,2.3-0.4
					c1.7-2.4,4.5-3.8,7.5-3.8s5.8,1.4,7.5,3.8c0.3,0.5,0.8,0.7,1.3,0.7c0.3,0,0.7-0.1,1-0.3c0.7-0.5,0.9-1.6,0.4-2.3
					C584.6,281.9,580.8,280,576.7,280z"/>
				<path id="XMLID_17_" class="st23" d="M630.6,285.2c-2.3-3.3-6.1-5.2-10.2-5.2s-7.9,1.9-10.2,5.2c-0.5,0.7-0.4,1.8,0.4,2.3
					s1.8,0.4,2.3-0.4c1.7-2.4,4.5-3.8,7.5-3.8s5.8,1.4,7.5,3.8c0.3,0.5,0.8,0.7,1.3,0.7c0.3,0,0.7-0.1,1-0.3
					C630.9,286.9,631.1,285.9,630.6,285.2z"/>
			</g>
			<rect x="533.7" y="533.6" class="st34" width="127.7" height="29.8"/>
			<g>
				<path class="st33" d="M770.7,600.2l-74.7-20l-13.2,43.8l76.1,20.4c2,0.5,4,0.8,5.9,0.8c10.1,0,19.4-6.8,22.1-17
					C790.2,616,783,603.5,770.7,600.2z"/>
			</g>
			<g>
				<path class="st35" d="M688.7,577.5l-228.4-61.1c-12.6-3.4-25.6,4.1-29,16.8c-3.4,12.6,4.1,25.6,16.8,29l226.2,60.5L688.7,577.5z
					"/>
			</g>
			<g>
				<polygon class="st34" points="688.7,577.5 570.3,545.9 496,575 636.7,612.7 				"/>
			</g>
			<line class="st36" x1="687.6" y1="573" x2="674.7" y2="628.4"/>
			<g>
				<path class="st33" d="M503.9,579.7l-77.6,20.7c-12,3.2-19.1,15.5-15.9,27.5c2.7,10,11.8,16.7,21.7,16.7c1.9,0,3.9-0.3,5.8-0.8
					l80.4-21.5C513.5,608.2,508.2,594.1,503.9,579.7z"/>
			</g>
			<g>
				<path class="st35" d="M515.3,574.7l228.4-61.1c12.6-3.4,25.6,4.1,29,16.8c3.4,12.6-4.1,25.6-16.8,29l-226.2,60.5L515.3,574.7z"
					/>
			</g>
			<line class="st36" x1="508.7" y1="573" x2="521.6" y2="628.4"/>
			<g>
				<line class="st37" x1="469.5" y1="612.2" x2="430.4" y2="622.7"/>
				<g>
					<path class="st38" d="M447.1,633.5c-6.8,0-13-4.5-14.8-11.4c-2.2-8.2,2.7-16.6,10.8-18.8l40.8-10.9c8.2-2.2,16.6,2.7,18.8,10.8
						c2.2,8.2-2.7,16.6-10.8,18.8L451.1,633C449.8,633.4,448.4,633.5,447.1,633.5z"/>
				</g>
				<g>
					<g>
						<line class="st39" x1="471" y1="595.3" x2="466.3" y2="628.4"/>
						<line class="st39" x1="458.4" y1="598.7" x2="478.9" y2="625"/>
					</g>
					<g>
						<line class="st39" x1="456.6" y1="599.2" x2="451.9" y2="632.2"/>
						<line class="st39" x1="444" y1="602.5" x2="464.4" y2="628.8"/>
					</g>
					<g>
						<line class="st39" x1="442.1" y1="603" x2="437.4" y2="636"/>
						<line class="st39" x1="429.5" y1="606.4" x2="450" y2="632.7"/>
					</g>
					<g>
						<line class="st39" x1="429.5" y1="606.4" x2="423.8" y2="634.6"/>
						<line class="st39" x1="418.4" y1="614.5" x2="437.4" y2="636"/>
					</g>
				</g>
			</g>
			<g>
				<line class="st37" x1="728.2" y1="612.2" x2="767.3" y2="622.7"/>
				<g>
					<path class="st38" d="M753.6,633.9c-1.3,0-2.6-0.2-4-0.5l-40.8-10.9c-8.2-2.2-13-10.6-10.8-18.8c2.2-8.2,10.6-13,18.8-10.8
						l40.8,10.9c8.2,2.2,13,10.6,10.8,18.8C766.6,629.4,760.4,633.9,753.6,633.9z"/>
				</g>
				<g>
					<g>
						<line class="st39" x1="726.7" y1="595.3" x2="731.4" y2="628.4"/>
						<line class="st39" x1="739.3" y1="598.7" x2="718.8" y2="625"/>
					</g>
					<g>
						<line class="st39" x1="741.1" y1="599.2" x2="745.8" y2="632.2"/>
						<line class="st39" x1="753.7" y1="602.5" x2="733.2" y2="628.8"/>
					</g>
					<g>
						<line class="st39" x1="755.6" y1="603" x2="760.3" y2="636"/>
						<line class="st39" x1="768.2" y1="606.4" x2="747.7" y2="632.7"/>
					</g>
					<g>
						<line class="st39" x1="768.2" y1="606.4" x2="773.9" y2="634.6"/>
						<line class="st39" x1="779.3" y1="614.5" x2="760.3" y2="636"/>
					</g>
				</g>
			</g>
		</g>
		<g>
			
				<image style="overflow:visible;opacity:0.15;enable-background:new    ;" width="724" height="740" xlink:href="B1D1C8E4.png"  transform="matrix(1 0 0 1 238 49)">
			</image>
			<g>
				<g>
					<g>
						<path id="SVGID_x5F_2_x5F_" class="st40" d="M917.2,413.4c0,175.8-142.5,318.3-318.3,318.3S280.6,589.2,280.6,413.4
							S423.1,95.1,598.9,95.1S917.2,237.6,917.2,413.4z"/>
						<text transform="matrix(1 0 0 1 0 16)" class="st41 st42"> </text>
					</g>
					<g>
						<path id="SVGID_x5F_3_x5F_" class="st40" d="M957.5,413.4c0-198-160.5-358.6-358.6-358.6S240.3,215.4,240.3,413.4
							c0,198,160.5,358.6,358.6,358.6S957.5,611.5,957.5,413.4z"/>
						<text transform="matrix(1 0 0 1 0 16)" class="st41 st42"> </text>
					</g>
				</g>
			</g>
		</g>
		<ellipse class="st21" cx="604.1" cy="685.8" rx="128.9" ry="7.8"/>
	</g>
</g>
</svg>
