<svg id="Capa_1" enable-background="new 0 0 491.546 491.546" height="512" viewBox="0 0 491.546 491.546" width="512" xmlns="http://www.w3.org/2000/svg"><g><circle cx="219.16" cy="265.492" fill="#b5adb6" r="219.16"/><circle cx="219.16" cy="265.492" fill="#a79ba7" r="177.16"/><circle cx="219.16" cy="265.492" fill="#918291" r="138.16"/><circle cx="219.16" cy="265.493" fill="#fef056" r="102.16"/><path d="m168.671 265.493c0-47.496 32.413-87.418 76.324-98.862-8.252-2.151-16.91-3.299-25.836-3.299-56.421 0-102.16 45.739-102.16 102.16s45.739 102.16 102.16 102.16c8.926 0 17.583-1.148 25.836-3.299-43.911-11.443-76.324-51.365-76.324-98.86z" fill="#fee903"/><circle cx="219.16" cy="265.492" fill="#a6e7f0" r="72.16"/><path d="m194.405 333.276c-16.02-18.037-25.734-41.761-25.734-67.784s9.714-49.747 25.734-67.784c-27.648 10.115-47.405 36.676-47.405 67.784s19.756 57.67 47.405 67.784z" fill="#6bd9e7"/><circle cx="219.16" cy="265.492" fill="#918291" r="25.811"/><g><g><path d="m325.085 385.916c-2.033 0-4.059-.821-5.538-2.44-2.795-3.058-2.581-7.802.477-10.596l21.248-19.418 60.865-65.417c.352-.378.615-.836.764-1.327l44.069-145.816 11.592-42.878c1.082-4 5.204-6.361 9.197-5.283 3.999 1.081 6.364 5.199 5.283 9.197l-11.621 42.985c-.02.071-.04.143-.061.213l-44.1 145.919c-.807 2.671-2.239 5.165-4.143 7.209l-61.07 65.638c-.139.148-.282.291-.432.428l-21.473 19.623c-1.438 1.315-3.25 1.963-5.057 1.963z" fill="#e2dee2"/></g><path d="m466.496 144.445-24.575-5.913c-5.387-1.296-8.703-6.714-7.407-12.101l12.668-52.644c1.296-5.387 6.714-8.703 12.101-7.407l24.575 5.913c5.387 1.296 8.703 6.714 7.407 12.101l-12.668 52.644c-1.295 5.387-6.713 8.703-12.101 7.407z" fill="#cbc4cc"/><ellipse cx="333.493" cy="103.687" fill="#fd8087" rx="21.426" ry="16.548" transform="matrix(.842 -.54 .54 .842 -3.214 196.405)"/><g id="XMLID_387_"><g><path d="m385.678 45.025v39.412c0 2.516-3.042 3.776-4.821 1.997l-34.889-34.889v-40.183c0-2.667 3.225-4.003 5.111-2.117l33.764 33.764c.535.535.835 1.26.835 2.016z" fill="#fd8087"/></g><g><g><path d="m345.968 106.454c-4.143 0-7.5-3.357-7.5-7.5v-84.56c0-4.143 3.357-7.5 7.5-7.5s7.5 3.357 7.5 7.5v84.561c0 4.142-3.358 7.499-7.5 7.499z" fill="#fd8087"/></g></g></g></g><path d="m352.599 386.556-38.153 22.713c-4.09 2.435-9.316 1.744-12.634-1.669l-6.361-6.546c-3.317-3.413-3.858-8.657-1.307-12.676l23.794-37.488c3.56-5.609 11.425-6.42 16.055-1.656l20.721 21.321c4.63 4.764 3.594 12.602-2.115 16.001z" fill="#cbc4cc"/></g></svg>